HIERARCHY
ROOT hip
{
  OFFSET 0 0 0
  CHANNELS 6 Xposition Yposition Zposition Zrotation Yrotation Xrotation
  JOINT abdomen
  {
    OFFSET 0 20.6881 -0.73152
    CHANNELS 3 Zrotation Xrotation Yrotation
    JOINT chest
    {
      OFFSET 0 11.7043 -0.48768
      CHANNELS 3 Zrotation Xrotation Yrotation
      JOINT neck
      {
        OFFSET 0 22.1894 -2.19456
        CHANNELS 3 Zrotation Xrotation Yrotation
        JOINT head
        {
          OFFSET -0.24384 7.07133 1.2192
          CHANNELS 3 Zrotation Xrotation Yrotation
          JOINT leftEye
          {
            OFFSET 4.14528 8.04674 8.04672
            CHANNELS 3 Zrotation Xrotation Yrotation
            End Site
            {
              OFFSET 1 0 0
            }
          }
          JOINT rightEye
          {
            OFFSET -3.6576 8.04674 8.04672
            CHANNELS 3 Zrotation Xrotation Yrotation
            End Site
            {
              OFFSET 1 0 0
            }
          }
        }
      }
      JOINT rCollar
      {
        OFFSET -2.68224 19.2634 -4.8768
        CHANNELS 3 Zrotation Xrotation Yrotation
        JOINT rShldr
        {
          OFFSET -8.77824 -1.95073 1.46304
          CHANNELS 3 Zrotation Xrotation Yrotation
          JOINT rForeArm
          {
            OFFSET -28.1742 -1.7115 0.48768
            CHANNELS 3 Zrotation Xrotation Yrotation
            JOINT rHand
            {
              OFFSET -22.5879 0.773209 7.07136
              CHANNELS 3 Zrotation Xrotation Yrotation
              JOINT rThumb1
              {
                OFFSET -1.2192 -0.487915 3.41376
                CHANNELS 3 Zrotation Xrotation Yrotation
                JOINT rThumb2
                {
                  OFFSET -3.37035 -0.52449 3.41376
                  CHANNELS 3 Zrotation Xrotation Yrotation
                  End Site
                  {
                    OFFSET -1.78271 -1.18214 1.43049
                  }
                }
              }
              JOINT rIndex1
              {
                OFFSET -7.75947 0.938293 5.60832
                CHANNELS 3 Zrotation Xrotation Yrotation
                JOINT rIndex2
                {
                  OFFSET -2.54057 -0.884171 1.56538
                  CHANNELS 3 Zrotation Xrotation Yrotation
                  End Site
                  {
                    OFFSET -1.62519 -0.234802 1.16502
                  }
                }
              }
              JOINT rMid1
              {
                OFFSET -8.24714 1.18213 3.41376
                CHANNELS 3 Zrotation Xrotation Yrotation
                JOINT rMid2
                {
                  OFFSET -3.10165 -0.590103 1.0647
                  CHANNELS 3 Zrotation Xrotation Yrotation
                  End Site
                  {
                    OFFSET -2.48547 -0.328903 0.83742
                  }
                }
              }
              JOINT rRing1
              {
                OFFSET -8.82822 0.546677 1.51678
                CHANNELS 3 Zrotation Xrotation Yrotation
                JOINT rRing2
                {
                  OFFSET -2.60934 -0.819778 -0.0198488
                  CHANNELS 3 Zrotation Xrotation Yrotation
                  End Site
                  {
                    OFFSET -2.33842 -0.294052 0.168128
                  }
                }
              }
              JOINT rPinky1
              {
                OFFSET -8.27202 -0.0477905 -0.4584
                CHANNELS 3 Zrotation Xrotation Yrotation
                JOINT rPinky2
                {
                  OFFSET -1.82734 -0.647385 -0.700984
                  CHANNELS 3 Zrotation Xrotation Yrotation
                  End Site
                  {
                    OFFSET -1.69225 -0.51767 -0.607171
                  }
                }
              }
            }
          }
        }
      }
      JOINT lCollar
      {
        OFFSET 2.68224 19.2634 -4.8768
        CHANNELS 3 Zrotation Xrotation Yrotation
        JOINT lShldr
        {
          OFFSET 8.77824 -1.95073 1.46304
          CHANNELS 3 Zrotation Xrotation Yrotation
          JOINT lForeArm
          {
            OFFSET 28.1742 -1.7115 0.48768
            CHANNELS 3 Zrotation Xrotation Yrotation
            JOINT lHand
            {
              OFFSET 22.5879 0.773209 7.07136
              CHANNELS 3 Zrotation Xrotation Yrotation
              JOINT lThumb1
              {
                OFFSET 1.2192 -0.487915 3.41376
                CHANNELS 3 Zrotation Xrotation Yrotation
                JOINT lThumb2
                {
                  OFFSET 3.37035 -0.52449 3.41376
                  CHANNELS 3 Zrotation Xrotation Yrotation
                  End Site
                  {
                    OFFSET 1.78271 -1.18214 1.43049
                  }
                }
              }
              JOINT lIndex1
              {
                OFFSET 7.75947 0.938293 5.60832
                CHANNELS 3 Zrotation Xrotation Yrotation
                JOINT lIndex2
                {
                  OFFSET 2.54057 -0.884171 1.56538
                  CHANNELS 3 Zrotation Xrotation Yrotation
                  End Site
                  {
                    OFFSET 1.62519 -0.234802 1.16502
                  }
                }
              }
              JOINT lMid1
              {
                OFFSET 8.24714 1.18213 3.41376
                CHANNELS 3 Zrotation Xrotation Yrotation
                JOINT lMid2
                {
                  OFFSET 3.10165 -0.590103 1.0647
                  CHANNELS 3 Zrotation Xrotation Yrotation
                  End Site
                  {
                    OFFSET 2.48547 -0.328903 0.83742
                  }
                }
              }
              JOINT lRing1
              {
                OFFSET 8.82822 0.546677 1.51678
                CHANNELS 3 Zrotation Xrotation Yrotation
                JOINT lRing2
                {
                  OFFSET 2.60934 -0.819778 -0.0198488
                  CHANNELS 3 Zrotation Xrotation Yrotation
                  End Site
                  {
                    OFFSET 2.33842 -0.294052 0.168128
                  }
                }
              }
              JOINT lPinky1
              {
                OFFSET 8.27202 -0.0477905 -0.4584
                CHANNELS 3 Zrotation Xrotation Yrotation
                JOINT lPinky2
                {
                  OFFSET 1.82734 -0.647385 -0.700984
                  CHANNELS 3 Zrotation Xrotation Yrotation
                  End Site
                  {
                    OFFSET 1.69225 -0.51767 -0.607171
                  }
                }
              }
            }
          }
        }
      }
    }
  }
  JOINT rButtock
  {
    OFFSET -8.77824 4.35084 1.2192
    CHANNELS 3 Zrotation Xrotation Yrotation
    JOINT rThigh
    {
      OFFSET 0 -1.70687 -2.19456
      CHANNELS 3 Zrotation Xrotation Yrotation
      JOINT rShin
      {
        OFFSET 0 -36.8199 0.73152
        CHANNELS 3 Zrotation Xrotation Yrotation
        JOINT rFoot
        {
          OFFSET 0.73152 -45.1104 -5.12064
          CHANNELS 3 Zrotation Xrotation Yrotation
          End Site
          {
            OFFSET -1.1221 -3.69964 12.103
          }
        }
      }
    }
  }
  JOINT lButtock
  {
    OFFSET 8.77824 4.35084 1.2192
    CHANNELS 3 Zrotation Xrotation Yrotation
    JOINT lThigh
    {
      OFFSET 0 -1.70687 -2.19456
      CHANNELS 3 Zrotation Xrotation Yrotation
      JOINT lShin
      {
        OFFSET 0 -36.8199 0.73152
        CHANNELS 3 Zrotation Xrotation Yrotation
        JOINT lFoot
        {
          OFFSET -0.73152 -45.1104 -5.12064
          CHANNELS 3 Zrotation Xrotation Yrotation
          End Site
          {
            OFFSET 1.1221 -3.69964 12.103
          }
        }
      }
    }
  }
}
MOTION
Frames:	4
Frame Time:	0.00833333
39.8965 9.08818 68.267 0.0 0.0 0.0 0.0404773 0.000270351 0.0011442 0.0111557 0.000489846 0.00193244 -4.88849e-16 -1.59028e-15 -6.98852e-18 -1.46604e-15 3.18055e-15 -2.32951e-17 -0.0 0.0 0.0 -0.0 0.0 0.0 -2.99528e-16 -2.71776e-18 9.93923e-17 -2.01493e-15 -1.36664e-16 7.95139e-16 -9.2087e-14 2.14687e-14 1.27222e-14 -1.01085e-12 -5.00192e-14 -2.8625e-14 -2.39279e-12 -6.13326e-14 -3.18055e-14 -4.13035e-12 -1.08139e-13 -6.83819e-14 -2.38303e-12 -5.60573e-14 -4.77083e-14 7.73091 5.47488 0.417314 -2.39044e-12 -5.99336e-14 -3.49861e-14 2.90554 0.965183 0.102902 -2.38196e-12 -6.03311e-14 -3.89618e-14 10.2786 0.731801 0.0259123 -2.39337e-12 -6.36111e-14 -3.81667e-14 2.22167 -0.733487 -0.20892 -1.97449e-16 -2.71776e-18 -9.93923e-17 -8.32333e-15 -4.34841e-17 -9.93923e-16 -8.92543e-14 -2.8625e-14 -3.18055e-15 -1.01531e-12 1.68222e-14 -1.59028e-14 -2.3941e-12 -2.45276e-14 -4.13472e-14 -4.13631e-12 -4.45278e-14 -6.52014e-14 -2.40132e-12 -2.06736e-14 -3.18055e-14 -7.73091 5.47488 -0.417314 -2.39426e-12 -2.41523e-14 -4.13472e-14 -2.90554 0.965183 -0.102902 -2.40888e-12 -2.37548e-14 -3.81667e-14 -10.2786 0.731801 -0.0259123 -2.38959e-12 -2.50469e-14 -4.13472e-14 -2.22167 -0.733487 0.20892 -2.03217e-16 0.0 -3.88251e-19 0.554721 -3.16495 -0.0436871 -0.0057458 0.179587 -0.0505629 -0.523963 2.98422 0.12118 2.03217e-16 0.0 3.88251e-19 -0.492954 -3.01455 0.0399633 0.00619271 -0.0928675 0.0545576 0.523374 3.10626 -0.123614
36.9378 20.1579 32.6083 179.109 -4.2439 168.806 0.380893 15.9203 1.27234 -0.373613 0.189208 -0.7771 -1.42945 0.156926 -0.873123 2.60181 -10.7054 -1.08422 -0.0 0.0 0.0 -0.0 0.0 0.0 4.95438e-15 -1.52452e-16 -3.09475e-15 8.10645 8.57459 18.126 -12.2817 -9.24564 13.5642 0.00956041 2.16921 0.304074 2.57287e-10 -2.81418e-10 5.62246e-10 4.48394e-10 -4.78588e-10 9.7067e-10 2.57296e-10 -2.81416e-10 5.62231e-10 7.73091 5.47488 0.417314 2.57288e-10 -2.81415e-10 5.62241e-10 2.90554 0.965183 0.102902 2.57297e-10 -2.81415e-10 5.62237e-10 10.2786 0.731801 0.0259123 2.57286e-10 -2.81417e-10 5.62238e-10 2.22167 -0.733487 -0.20892 4.9708e-15 -1.50011e-16 -3.29121e-15 -8.66026 10.3733 -18.3905 11.3047 -8.20593 -13.08 -0.095714 6.87185 -0.940872 -6.79881e-11 -8.9251e-10 -5.60814e-10 -1.29138e-10 -1.50915e-09 -9.67111e-10 -6.79936e-11 -8.92511e-10 -5.60805e-10 -7.73091 5.47488 -0.417314 -6.7987e-11 -8.92512e-10 -5.60814e-10 -2.90554 0.965183 -0.102902 -6.80008e-11 -8.9251e-10 -5.60811e-10 -10.2786 0.731801 -0.0259123 -6.79834e-11 -8.9251e-10 -5.60816e-10 -2.22167 -0.733487 0.20892 -2.03217e-16 0.0 -3.88251e-19 -10.5806 -16.8658 -7.10628 3.42278 24.489 -0.0781189 2.44409 -0.555979 -0.780647 2.03217e-16 0.0 3.88251e-19 10.5191 -16.2472 8.08844 -3.04969 22.6091 -0.284641 -1.88838 1.03118 -1.61563
36.9441 20.148 32.6134 179.085 -4.2332 168.834 -0.154518 32.7232 2.9899 -0.777228 0.388148 -1.60028 -2.93402 0.319961 -1.7957 4.87868 -22.0023 -2.36333 -0.0 0.0 0.0 -0.0 0.0 0.0 1.16567e-14 -4.01622e-16 -6.563e-15 11.0557 14.7466 38.3294 -20.5096 -17.2701 28.9558 -0.00544198 4.46395 0.627224 5.37886e-10 -5.82574e-10 1.16779e-09 9.37372e-10 -9.9065e-10 2.0161e-09 5.37893e-10 -5.82576e-10 1.16778e-09 7.73091 5.47488 0.417314 5.37885e-10 -5.82571e-10 1.16779e-09 2.90554 0.965183 0.102902 5.37894e-10 -5.8257e-10 1.16778e-09 10.2786 0.731801 0.0259123 5.37883e-10 -5.8257e-10 1.16778e-09 2.22167 -0.733487 -0.20892 1.15801e-14 -3.96599e-16 -6.75557e-15 -10.8304 17.7207 -39.3904 19.2028 -15.4359 -27.7061 0.0554393 14.1306 -1.98164 -1.40816e-10 -1.84853e-09 -1.16503e-09 -2.67547e-10 -3.12538e-09 -2.00902e-09 -1.4082e-10 -1.84854e-09 -1.16502e-09 -7.73091 5.47488 -0.417314 -1.40813e-10 -1.84854e-09 -1.16503e-09 -2.90554 0.965183 -0.102902 -1.40827e-10 -1.84853e-09 -1.16502e-09 -10.2786 0.731801 -0.0259123 -1.40811e-10 -1.84853e-09 -1.16503e-09 -2.22167 -0.733487 0.20892 -2.03217e-16 0.0 -3.88251e-19 -26.5217 -30.5661 -16.2471 7.09391 50.1883 -0.145398 5.45599 -4.29272 -1.71732 2.03217e-16 0.0 3.88251e-19 26.6841 -29.262 18.3346 -5.87257 46.6058 -0.870673 -4.55453 -1.15957 -3.19522
36.9445 20.1451 32.6226 179.106 -4.1665 168.895 -1.92322 47.6423 5.44906 -1.12776 0.566226 -2.33527 -4.27401 0.470341 -2.61945 6.405 -32.0659 -3.77217 -0.0 0.0 0.0 -0.0 0.0 0.0 1.54622e-14 -4.51921e-16 -9.48304e-15 10.3247 15.597 56.853 -24.1947 -21.4023 43.8368 -0.0407703 6.50691 0.91748 7.76647e-10 -8.4413e-10 1.6868e-09 1.35344e-09 -1.43555e-09 2.91215e-09 7.76654e-10 -8.44136e-10 1.68679e-09 7.73091 5.47488 0.417314 7.76645e-10 -8.44126e-10 1.68679e-09 2.90554 0.965183 0.102902 7.76653e-10 -8.44125e-10 1.68679e-09 10.2786 0.731801 0.0259123 7.76643e-10 -8.44123e-10 1.68679e-09 2.22167 -0.733487 -0.20892 1.53073e-14 -4.44596e-16 -9.67483e-15 -8.69161 18.4333 -58.7973 23.1279 -19.4188 -41.6708 0.428916 20.5925 -2.99378 -1.99176e-10 -2.67748e-09 -1.68236e-09 -3.79141e-10 -4.52737e-09 -2.9012e-09 -1.99178e-10 -2.67749e-09 -1.68235e-09 -7.73091 5.47488 -0.417314 -1.99172e-10 -2.67749e-09 -1.68236e-09 -2.90554 0.965183 -0.102902 -1.99185e-10 -2.67748e-09 -1.68236e-09 -10.2786 0.731801 -0.0259123 -1.99171e-10 -2.67748e-09 -1.68236e-09 -2.22167 -0.733487 0.20892 -2.03217e-16 0.0 -3.88251e-19 -45.5596 -41.2181 -27.4804 10.5523 73.1075 -0.385955 8.04399 -7.62873 -2.60695 2.03217e-16 0.0 3.88251e-19 46.0099 -38.9662 30.4562 -7.26805 67.9964 -2.39584 -7.03597 -3.10772 -4.60602
